<!--?xml version="1.0" encoding="utf-8"?-->
<svg version="1.1" id="link-loader" xmlns="http://www.w3.org/2000/svg" xmlns:xlink="http://www.w3.org/1999/xlink" x="0px" y="0px" viewBox="0 0 1189.9 284.4" xml:space="preserve">
	<style type="text/css">
		#link-loader .letra {
			fill-rule: evenodd;
			clip-rule: evenodd;
			fill: #FFFFFF;
		}
		#link-loader .onda {
			fill-rule: evenodd;
			clip-rule: evenodd;
			fill: none;
			stroke: #FFFFFF;
			stroke-width: 34;
			stroke-linecap: round;
			stroke-linejoin: round;
			stroke-miterlimit: 10;
			stroke-dasharray: 950 952;
			stroke-dashoffset: 951;
			animation: onda_motion 2600ms linear forwards infinite;
		}
		@keyframes onda_motion {
			25% {
				stroke-dashoffset: 0;
			}
			50% {
				stroke-dashoffset: 0;
			}
			75% {
				stroke-dashoffset: -951;
			}
			100% {
				stroke-dashoffset: -951;
			}
		}
	</style>

	<path class="letra" d="M186.9,237.3H39.5c-3.9-0.1-7.1-3.3-7.2-7.2V30.9c-0.2-8.9-7.6-16-16.6-15.8C7.2,15.4,0.2,22.3,0,30.9v199.1 c0,21.8,17.6,39.4,39.4,39.6h147.5c8.9,0,16.2-7.2,16.2-16.1C203.1,244.5,195.8,237.3,186.9,237.3z"></path>
	<path class="onda" d="M338.7,85.5v58.3c0,67.4,56.9,124.1,123.1,124.1c78.1,0,122.9-66.9,122.9-123.3c0-70.7,54.5-128.3,122.2-128.3 c77.1,0,124.2,63.4,124.2,123.1v113.3"></path>
	<path class="letra" d="M1080.3,137.4l104.5-94.9c6.4-6.1,6.6-16.2,0.6-22.5c-5.9-6.2-15.5-6.6-22-1.1l-132.9,120.6 c-2.6,2.2-6.2,2.7-9.3,1.3c-2.7-1.2-4.4-4-4.3-7V30.7c0.2-8.8-6.7-16.1-15.5-16.3c-8.8-0.2-16.1,6.7-16.3,15.5c0,0.3,0,0.5,0,0.8 v223c0.2,8.8,7.5,15.8,16.3,15.5c8.5-0.2,15.3-7,15.5-15.5V211c0-13.2,3.5-19,9.1-24.2l30.8-28L1162.7,265c6.2,6.2,16.3,6.2,22.5,0 c6.2-6.2,6.2-16.3,0-22.5L1080.3,137.4z"></path>
	<path class="letra" d="M322.4,32.3A17.6,17.6 0,1,1 357.6,32.3A17.6,17.6 0,1,1 322.4,32.3"></path>
</svg>
