<svg xmlns="http://www.w3.org/2000/svg" xmlns:xlink="http://www.w3.org/1999/xlink" width="40" height="40" viewBox="0 0 40 40">
  <defs>
    <clipPath id="clip-path">
      <rect id="Ret칙ngulo_3398" data-name="Ret칙ngulo 3398" width="40" height="40" transform="translate(2402 792)" fill="none"/>
    </clipPath>
  </defs>
  <g id="Grupo_de_m치scara_11" data-name="Grupo de m치scara 11" transform="translate(-2402 -792)" clip-path="url(#clip-path)">
    <g id="_Alertas_32x32px_Aviso" data-name=" Alertas / 32x32px / Aviso" transform="translate(2400.97 791.117)">
      <g id="Group_7" data-name="Group 7" transform="translate(4.94 7.092)">
        <path id="Stroke_1" data-name="Stroke 1" d="M12.67,27.582H2.573A2.479,2.479,0,0,1,.354,23.855L14.118,1.106a2.311,2.311,0,0,1,3.944,0L31.825,23.855a2.479,2.479,0,0,1-2.22,3.727H19.565" transform="translate(0 0)" fill="none" stroke="#ffbc00" stroke-linecap="round" stroke-linejoin="round" stroke-miterlimit="10" stroke-width="1.8"/>
        <path id="Stroke_3" data-name="Stroke 3" d="M.5,0V10.043" transform="translate(15.589 6.908)" fill="none" stroke="#ffbc00" stroke-linecap="round" stroke-linejoin="round" stroke-miterlimit="10" stroke-width="1.8"/>
        <path id="Fill_5" data-name="Fill 5" d="M2.493,1.243A1.246,1.246,0,1,1,1.247,0,1.245,1.245,0,0,1,2.493,1.243" transform="translate(14.843 20.592)" fill="#edba2c"/>
      </g>
    </g>
  </g>
</svg>
