<svg id="Ocultar_Icone" data-name="Ocultar / Icone" xmlns="http://www.w3.org/2000/svg" xmlns:xlink="http://www.w3.org/1999/xlink" width="16" height="16" viewBox="0 0 16 16">
  <defs>
    <clipPath id="clip-path">
      <rect id="Retângulo_3414" data-name="Retângulo 3414" width="16" height="16" transform="translate(291 1249)" fill="#fff"/>
    </clipPath>
    <clipPath id="clip-path-2">
      <path id="Mask" d="M1.4,12.565a.346.346,0,0,1,0-.49L13.375.1a.347.347,0,0,1,.49.49L1.892,12.565a.346.346,0,0,1-.49,0Zm3.958-2.5.517-.517a6.382,6.382,0,0,0,2.2.415l.142,0a7.267,7.267,0,0,0,3.435-1.027A14.274,14.274,0,0,0,15.113,6a16.32,16.32,0,0,0-3.029-2.66l.481-.481A17.953,17.953,0,0,1,16,6a15.82,15.82,0,0,1-3.856,3.426,8,8,0,0,1-3.908,1.208l-.16,0A7.214,7.214,0,0,1,5.359,10.069Zm-1.9-1.027h0A19.17,19.17,0,0,1,0,5.936,15.675,15.675,0,0,1,3.9,2.484,7.978,7.978,0,0,1,7.871,1.3h.081a7.316,7.316,0,0,1,2.709.544l-.517.517a6.542,6.542,0,0,0-2.192-.395H7.879a7.25,7.25,0,0,0-3.488,1,14.086,14.086,0,0,0-3.5,2.952A17.265,17.265,0,0,0,3.946,8.56l-.482.482Zm3.65-.727.544-.545A1.976,1.976,0,0,0,8,7.8a2,2,0,0,0,2-2,2.035,2.035,0,0,0-.029-.342l.544-.545a2.668,2.668,0,0,1-3.4,3.4ZM5.581,6.923A2.667,2.667,0,0,1,9.123,3.381L8.61,3.9A2,2,0,0,0,6.1,6.41l-.513.512h0Z" fill="#3b69ff"/>
    </clipPath>
  </defs>
  <g id="Grupo_de_máscara_19" data-name="Grupo de máscara 19" transform="translate(-291 -1249)" clip-path="url(#clip-path)">
    <g id="olho" transform="translate(291 1248)">
      <g id="Grupo_6247" data-name="Grupo 6247" transform="translate(0 3.05)">
        <path id="Mask-2" data-name="Mask" d="M1.4,12.565a.346.346,0,0,1,0-.49L13.375.1a.347.347,0,0,1,.49.49L1.892,12.565a.346.346,0,0,1-.49,0Zm3.958-2.5.517-.517a6.382,6.382,0,0,0,2.2.415l.142,0a7.267,7.267,0,0,0,3.435-1.027A14.274,14.274,0,0,0,15.113,6a16.32,16.32,0,0,0-3.029-2.66l.481-.481A17.953,17.953,0,0,1,16,6a15.82,15.82,0,0,1-3.856,3.426,8,8,0,0,1-3.908,1.208l-.16,0A7.214,7.214,0,0,1,5.359,10.069Zm-1.9-1.027h0A19.17,19.17,0,0,1,0,5.936,15.675,15.675,0,0,1,3.9,2.484,7.978,7.978,0,0,1,7.871,1.3h.081a7.316,7.316,0,0,1,2.709.544l-.517.517a6.542,6.542,0,0,0-2.192-.395H7.879a7.25,7.25,0,0,0-3.488,1,14.086,14.086,0,0,0-3.5,2.952A17.265,17.265,0,0,0,3.946,8.56l-.482.482Zm3.65-.727.544-.545A1.976,1.976,0,0,0,8,7.8a2,2,0,0,0,2-2,2.035,2.035,0,0,0-.029-.342l.544-.545a2.668,2.668,0,0,1-3.4,3.4ZM5.581,6.923A2.667,2.667,0,0,1,9.123,3.381L8.61,3.9A2,2,0,0,0,6.1,6.41l-.513.512h0Z" transform="translate(0 0)" fill="#3b69ff"/>
        <g id="Grupo_de_máscara_18" data-name="Grupo de máscara 18" transform="translate(0 0)" clip-path="url(#clip-path-2)">
          <g id="base_color_Fill_nav_icons_3B69FF" data-name="base/color/Fill/nav icons/#3B69FF" transform="translate(0 -2.033)">
            <rect id="Rectangle_11_Copy_2" data-name="Rectangle 11 Copy 2" width="16" height="16" fill="#3b69ff"/>
          </g>
        </g>
      </g>
    </g>
  </g>
</svg>
